<svg width="512" height="512" viewBox="0 0 512 512" xmlns="http://www.w3.org/2000/svg">
  <defs>
    <linearGradient id="bg" x1="0" y1="0" x2="1" y2="1">
      <stop offset="0%" stop-color="#0f1f4b"/>
      <stop offset="50%" stop-color="#2563eb"/>
      <stop offset="100%" stop-color="#60a5fa"/>
    </linearGradient>
    <linearGradient id="beam" x1="0" y1="0" x2="1" y2="1">
      <stop offset="0%" stop-color="rgba(255,255,255,0.85)"/>
      <stop offset="100%" stop-color="rgba(255,255,255,0.05)"/>
    </linearGradient>
    <filter id="shadow" x="-30%" y="-30%" width="160%" height="160%">
      <feDropShadow dx="0" dy="18" stdDeviation="24" flood-color="rgba(15,23,42,0.35)"/>
    </filter>
  </defs>
  <rect width="512" height="512" rx="110" fill="url(#bg)"/>
  <g filter="url(#shadow)">
    <path d="M164 128h184c20 0 36 16 36 36v184c0 20-16 36-36 36H164c-20 0-36-16-36-36V164c0-20 16-36 36-36z" fill="rgba(255,255,255,0.18)" stroke="rgba(255,255,255,0.45)" stroke-width="6"/>
    <path d="M198 180h116c12 0 22 10 22 22v116c0 12-10 22-22 22H198c-12 0-22-10-22-22V202c0-12 10-22 22-22z" fill="rgba(255,255,255,0.22)" stroke="rgba(255,255,255,0.6)" stroke-width="5"/>
    <path d="M154 256h204" stroke="url(#beam)" stroke-width="34" stroke-linecap="round" opacity="0.9"/>
    <circle cx="256" cy="256" r="68" fill="#fff" opacity="0.95"/>
    <path d="M226 222l80 34-80 34z" fill="#2563eb"/>
  </g>
  <text x="50%" y="430" text-anchor="middle" font-family="'Tajawal', sans-serif" font-weight="600" font-size="62" fill="rgba(255,255,255,0.9)">Batch Reader</text>
</svg>
